<?xml version="1.0" encoding="UTF-8" standalone="no"?>
<svg
   xmlns:dc="http://purl.org/dc/elements/1.1/"
   xmlns:cc="http://creativecommons.org/ns#"
   xmlns:rdf="http://www.w3.org/1999/02/22-rdf-syntax-ns#"
   xmlns:svg="http://www.w3.org/2000/svg"
   xmlns="http://www.w3.org/2000/svg"
   xmlns:sodipodi="http://sodipodi.sourceforge.net/DTD/sodipodi-0.dtd"
   xmlns:inkscape="http://www.inkscape.org/namespaces/inkscape"
   id="svg4776"
   sodipodi:docname="Mobile-Icon-White-on-Grey.svg"
   viewBox="0 0 199.92999 210"
   version="1.1"
   inkscape:version="1.0.1 (c497b03c, 2020-09-10)"
   width="199.92999"
   height="210">
  <title
     id="title3415">Mobile Icon - White on Grey</title>
  <defs
     id="defs16" />
  <sodipodi:namedview
     id="base"
     bordercolor="#666666"
     inkscape:pageshadow="2"
     inkscape:window-y="25"
     pagecolor="#ffffff"
     inkscape:window-height="1147"
     inkscape:window-maximized="1"
     inkscape:zoom="1.834153"
     inkscape:window-x="0"
     showgrid="false"
     borderopacity="1.0"
     inkscape:current-layer="layer1"
     inkscape:cx="-15.685852"
     inkscape:cy="152.99663"
     inkscape:window-width="3840"
     inkscape:pageopacity="0.0"
     inkscape:document-units="px"
     inkscape:document-rotation="0" />
  <g
     id="layer1"
     inkscape:label="Layer 1"
     inkscape:groupmode="layer"
     transform="translate(-231.54,-375.82)">
    <path
       style="color:#000000;fill:#ffffff"
       d="m 296.85664,381.14785 c -10.31779,0 -18.62304,6.93764 -18.62304,15.55468 V 565.5248 c 0,8.61705 8.30525,15.55274 18.62304,15.55274 h 74.50002 c 10.31779,0 18.62304,-6.93569 18.62304,-15.55274 V 396.70253 c 0,-8.61704 -8.30525,-15.55468 -18.62304,-15.55468 z m 24.06642,8.00195 h 26.36719 c 1.108,0 2,0.85104 2,1.91016 0,1.05911 -0.892,1.91211 -2,1.91211 h -26.36719 c -1.108,0 -2,-0.853 -2,-1.91211 0,-1.05912 0.892,-1.91016 2,-1.91016 z m -22.86915,10.52734 h 72.10352 c 3.94201,0 7.11523,2.51754 7.11523,5.64649 V 548.8998 c 0,3.12895 -3.17322,5.64844 -7.11523,5.64844 h -72.10352 c -3.942,0 -7.11523,-2.51949 -7.11523,-5.64844 V 405.32363 c 0,-3.12895 3.17323,-5.64649 7.11523,-5.64649 z m 22.86915,163.45313 h 26.36719 c 1.108,0 2,0.892 2,2 v 5.0918 c 0,1.108 -0.892,2 -2,2 h -26.36719 c -1.108,0 -2,-0.892 -2,-2 v -5.0918 c 0,-1.108 0.892,-2 2,-2 z"
       id="rect6580-2"
       inkscape:connector-curvature="0" />
  </g>
  <metadata
     id="metadata14">
    <rdf:RDF>
      <cc:Work>
        <dc:format>image/svg+xml</dc:format>
        <dc:type
           rdf:resource="http://purl.org/dc/dcmitype/StillImage" />
        <cc:license
           rdf:resource="http://creativecommons.org/publicdomain/zero/1.0/" />
        <dc:publisher>
          <cc:Agent
             rdf:about="http://openclipart.org/">
            <dc:title>Rygle</dc:title>
          </cc:Agent>
        </dc:publisher>
        <dc:title>Mobile Icon - White on Grey</dc:title>
        <dc:date>2015-03-29</dc:date>
        <dc:description>Mobile Icon - White on Grey</dc:description>
        <dc:source />
        <dc:creator>
          <cc:Agent>
            <dc:title>Rygle</dc:title>
          </cc:Agent>
        </dc:creator>
        <dc:subject>
          <rdf:Bag>
            <rdf:li>Icon</rdf:li>
            <rdf:li>mobile</rdf:li>
            <rdf:li>communication</rdf:li>
            <rdf:li>communicate</rdf:li>
          </rdf:Bag>
        </dc:subject>
        <dc:rights>
          <cc:Agent>
            <dc:title>Public Domain</dc:title>
          </cc:Agent>
        </dc:rights>
        <dc:contributor>
          <cc:Agent>
            <dc:title>Rygle</dc:title>
          </cc:Agent>
        </dc:contributor>
      </cc:Work>
      <cc:License
         rdf:about="http://creativecommons.org/publicdomain/zero/1.0/">
        <cc:permits
           rdf:resource="http://creativecommons.org/ns#Reproduction" />
        <cc:permits
           rdf:resource="http://creativecommons.org/ns#Distribution" />
        <cc:permits
           rdf:resource="http://creativecommons.org/ns#DerivativeWorks" />
      </cc:License>
    </rdf:RDF>
  </metadata>
</svg>
